<svg xmlns="http://www.w3.org/2000/svg" xmlns:xlink="http://www.w3.org/1999/xlink" width="200.862" height="45.198" viewBox="0 0 200.862 45.198">
  <defs>
    <clipPath id="clip-path">
      <path id="Контур_1600" data-name="Контур 1600" d="M776.986,985a11.317,11.317,0,0,1,1.723-6.45l-.024-.006a9.339,9.339,0,0,0-11.063-11.769,9.436,9.436,0,0,1,.981.672,9.341,9.341,0,0,1,1.579,13.115,11.114,11.114,0,0,0-2.387,4.448,9.34,9.34,0,0,0,15.21,9.6A11.361,11.361,0,0,1,776.986,985Z" transform="translate(-767.407 -966.537)" fill="none"/>
    </clipPath>
  </defs>
  <g id="Сгруппировать_840" data-name="Сгруппировать 840" transform="translate(-767.407 -966.537)">
    <g id="Сгруппировать_835" data-name="Сгруппировать 835" transform="translate(780.076 972.087)">
      <path id="Контур_1590" data-name="Контур 1590" d="M851.5,1022.822a11.851,11.851,0,0,1-4.565-.842,9.809,9.809,0,0,1-3.413-2.319,10.443,10.443,0,0,1-2.161-3.514,12.446,12.446,0,0,1-.766-4.4,13.071,13.071,0,0,1,.783-4.606,10.46,10.46,0,0,1,2.208-3.574,9.836,9.836,0,0,1,3.459-2.32,12.077,12.077,0,0,1,4.553-.828,15.46,15.46,0,0,1,2.761.228,8.081,8.081,0,0,1,2.086.649,3.491,3.491,0,0,1,1.259.974,1.922,1.922,0,0,1,.4,1.21,1.964,1.964,0,0,1-.525,1.369,1.616,1.616,0,0,1-1.264.561,2.484,2.484,0,0,1-.757-.148q-.524-.173-1.111-.363c-.4-.128-.822-.252-1.262-.368a5.7,5.7,0,0,0-1.461-.19,6.6,6.6,0,0,0-2.742.547,5.679,5.679,0,0,0-2.03,1.531,6.911,6.911,0,0,0-1.246,2.3,9.321,9.321,0,0,0-.431,2.9,9.127,9.127,0,0,0,.414,2.807,6.884,6.884,0,0,0,1.194,2.249,5.467,5.467,0,0,0,1.912,1.5,5.79,5.79,0,0,0,2.506.535,10.177,10.177,0,0,0,2-.167,10.34,10.34,0,0,0,1.4-.38q.572-.205,1-.363a2.111,2.111,0,0,1,.741-.127,1.763,1.763,0,0,1,1.38.5,1.933,1.933,0,0,1,.474,1.366,1.974,1.974,0,0,1-.473,1.306,4.057,4.057,0,0,1-1.425,1.047,9.453,9.453,0,0,1-2.212.685A14.455,14.455,0,0,1,851.5,1022.822Z" transform="translate(-840.593 -1000.103)"/>
      <path id="Контур_1591" data-name="Контур 1591" d="M962.728,1023.945a5.044,5.044,0,0,1-2.657-.618,1.564,1.564,0,0,1-.89-1.343,2.507,2.507,0,0,1,.446-1.507,1.2,1.2,0,0,1,1.049-.548,3.914,3.914,0,0,1,.9.157,5.742,5.742,0,0,0,1.441.189,3.857,3.857,0,0,0,1.678-.332,3.149,3.149,0,0,0,1.286-1.329l.14-.243-7.041-12.44a4.533,4.533,0,0,1-.387-.861,2.668,2.668,0,0,1-.168-.846,1.824,1.824,0,0,1,.624-1.4,2.363,2.363,0,0,1,1.685-.592,2.307,2.307,0,0,1,1.187.311,3.589,3.589,0,0,1,1.145,1.5l5.1,10.093L973.2,1003.9a3.789,3.789,0,0,1,.548-.929,2.309,2.309,0,0,1,.549-.482,1.554,1.554,0,0,1,.533-.2,4.069,4.069,0,0,1,.7-.055,2.055,2.055,0,0,1,1.471.589,1.846,1.846,0,0,1,.611,1.4,2.355,2.355,0,0,1-.151.779,7.223,7.223,0,0,1-.38.882l-5.7,11.608a22.2,22.2,0,0,1-1.925,3.273,8.544,8.544,0,0,1-1.922,1.948,6.076,6.076,0,0,1-2.139.961A12.032,12.032,0,0,1,962.728,1023.945Z" transform="translate(-938.115 -1001.604)"/>
      <path id="Контур_1592" data-name="Контур 1592" d="M1084.755,1023.819a2.08,2.08,0,0,1-1.474-.577,1.829,1.829,0,0,1-.608-1.416V1004.35a2.027,2.027,0,0,1,.579-1.561,2.483,2.483,0,0,1,3.136,0,2.025,2.025,0,0,1,.579,1.56v15.736h7.916V1004.35a2.026,2.026,0,0,1,.579-1.561,2.484,2.484,0,0,1,3.136,0,2.027,2.027,0,0,1,.579,1.561v15.736h7.917V1004.35a2.025,2.025,0,0,1,.579-1.561,2.483,2.483,0,0,1,3.136,0,2.026,2.026,0,0,1,.579,1.561v17.508a1.818,1.818,0,0,1-.595,1.388,2.027,2.027,0,0,1-1.454.573Z" transform="translate(-1040.769 -1001.604)"/>
      <path id="Контур_1593" data-name="Контур 1593" d="M1289.906,1024.008a2.172,2.172,0,0,1-1.568-.557,2.025,2.025,0,0,1-.579-1.561V1010.68l-.009-.941-10.367,12.529a7.48,7.48,0,0,1-1.383,1.387,2.038,2.038,0,0,1-1.2.353,2.207,2.207,0,0,1-1.572-.545,2.1,2.1,0,0,1-.575-1.635V1004.35a2.026,2.026,0,0,1,.579-1.561,2.484,2.484,0,0,1,3.136,0,2.026,2.026,0,0,1,.579,1.561v12.161l10.67-12.885a5.92,5.92,0,0,1,1.121-1.088,2.035,2.035,0,0,1,1.171-.306,2.173,2.173,0,0,1,1.568.558,2.026,2.026,0,0,1,.579,1.561v17.539a2.023,2.023,0,0,1-.579,1.56A2.171,2.171,0,0,1,1289.906,1024.008Z" transform="translate(-1197.863 -1001.604)"/>
      <path id="Контур_1594" data-name="Контур 1594" d="M1418.764,1021.446a2.153,2.153,0,0,1-1.511-.534,2.362,2.362,0,0,1-.57-1.8v-.843l-.431-.053a12.074,12.074,0,0,1-6.81-2.688,7.654,7.654,0,0,1,0-10.94,11.942,11.942,0,0,1,6.808-2.718l.431-.053v-1a2.17,2.17,0,0,1,.566-1.69,2.194,2.194,0,0,1,1.516-.522,2.106,2.106,0,0,1,1.519.542,2.213,2.213,0,0,1,.562,1.67v1l.432.052a11.8,11.8,0,0,1,6.836,2.73,7.656,7.656,0,0,1,0,10.886,11.8,11.8,0,0,1-6.836,2.73l-.432.052v.844a2.36,2.36,0,0,1-.566,1.816A2.193,2.193,0,0,1,1418.764,1021.446Zm2.081-6.934.581-.108a5.7,5.7,0,0,0,3.127-1.523,4.205,4.205,0,0,0,0-5.776,5.706,5.706,0,0,0-3.127-1.523l-.581-.108Zm-4.743-8.931a5.7,5.7,0,0,0-3.127,1.523,4.285,4.285,0,0,0,.006,5.845,5.652,5.652,0,0,0,3.13,1.456l.572.1v-9.03Z" transform="translate(-1309.073 -998.601)"/>
      <path id="Контур_1595" data-name="Контур 1595" d="M1732.735,1024.008a3.006,3.006,0,0,1-.476-.041,1.522,1.522,0,0,1-.486-.193,5.165,5.165,0,0,1-.783-.588,14.359,14.359,0,0,1-1.148-1.155l-8.213-8.911v8.769a2.025,2.025,0,0,1-.578,1.56,2.484,2.484,0,0,1-3.136,0,2.024,2.024,0,0,1-.579-1.561V1004.35a2.026,2.026,0,0,1,.579-1.561,2.483,2.483,0,0,1,3.136,0,2.026,2.026,0,0,1,.578,1.56v7.543l8.042-8.431a5.788,5.788,0,0,1,1.159-1,2.052,2.052,0,0,1,1.026-.233,1.854,1.854,0,0,1,.734.164,2.536,2.536,0,0,1,.708.46,2.671,2.671,0,0,1,.522.663,1.36,1.36,0,0,1,.182.673,1.676,1.676,0,0,1-.271.878,4.01,4.01,0,0,1-.621.812l-6.634,6.437,7.824,8.21a2.153,2.153,0,0,1,.711,1.453,1.844,1.844,0,0,1-.62,1.444A2.353,2.353,0,0,1,1732.735,1024.008Z" transform="translate(-1565.572 -1001.604)"/>
      <path id="Контур_1596" data-name="Контур 1596" d="M1836.4,1022.822a11.85,11.85,0,0,1-4.565-.842,9.81,9.81,0,0,1-3.413-2.319,10.447,10.447,0,0,1-2.16-3.514,12.454,12.454,0,0,1-.766-4.4,13.073,13.073,0,0,1,.782-4.606,10.458,10.458,0,0,1,2.208-3.574,9.837,9.837,0,0,1,3.459-2.32,12.076,12.076,0,0,1,4.553-.828,15.456,15.456,0,0,1,2.76.228,8.075,8.075,0,0,1,2.086.649,3.5,3.5,0,0,1,1.259.974,1.923,1.923,0,0,1,.4,1.21,1.963,1.963,0,0,1-.525,1.369,1.617,1.617,0,0,1-1.264.561,2.485,2.485,0,0,1-.757-.148q-.524-.173-1.111-.363c-.4-.128-.821-.251-1.262-.368a5.7,5.7,0,0,0-1.461-.19,6.6,6.6,0,0,0-2.742.547,5.683,5.683,0,0,0-2.03,1.531,6.9,6.9,0,0,0-1.245,2.3,9.314,9.314,0,0,0-.431,2.9,9.122,9.122,0,0,0,.415,2.807,6.88,6.88,0,0,0,1.193,2.249,5.472,5.472,0,0,0,1.912,1.5,5.791,5.791,0,0,0,2.506.535,10.173,10.173,0,0,0,2-.167,10.34,10.34,0,0,0,1.4-.38q.572-.205,1-.363a2.11,2.11,0,0,1,.74-.127,1.763,1.763,0,0,1,1.38.5,1.932,1.932,0,0,1,.474,1.366,1.974,1.974,0,0,1-.473,1.306,4.051,4.051,0,0,1-1.426,1.047,9.432,9.432,0,0,1-2.212.686A14.455,14.455,0,0,1,1836.4,1022.822Z" transform="translate(-1655.006 -1000.103)"/>
      <path id="Контур_1597" data-name="Контур 1597" d="M1572.127,1022.821a14.341,14.341,0,0,1-4.915-.8,10.755,10.755,0,0,1-3.744-2.269,10.066,10.066,0,0,1-2.4-3.523,12.058,12.058,0,0,1-.849-4.607,12.267,12.267,0,0,1,.849-4.655,9.891,9.891,0,0,1,2.4-3.521,10.705,10.705,0,0,1,3.744-2.238,14.576,14.576,0,0,1,4.917-.789,14.34,14.34,0,0,1,4.915.8,10.9,10.9,0,0,1,3.746,2.255,9.936,9.936,0,0,1,2.4,3.506,13.054,13.054,0,0,1,.017,9.217,10,10,0,0,1-2.363,3.522,10.777,10.777,0,0,1-3.728,2.284A14.3,14.3,0,0,1,1572.127,1022.821Zm-3.094-4.422c.092.048.187.1.294.145a7.514,7.514,0,0,0,5.655-.017,6.288,6.288,0,0,0,.643-.332,7.448,7.448,0,0,0-.008-13.156,6.164,6.164,0,0,0-.635-.328,7.093,7.093,0,0,0-2.891-.561,6.834,6.834,0,0,0-2.784.545,6.149,6.149,0,0,0-.6.31,7.448,7.448,0,0,0,.265,13.359Z" transform="translate(-1435.653 -1000.103)"/>
    </g>
    <path id="Контур_1598" data-name="Контур 1598" d="M1609.315,1039.694a5.077,5.077,0,0,1-5.225,5.119,5.234,5.234,0,1,1,5.225-5.119Zm-1.461,1.516a7.169,7.169,0,0,1-2.92-3.454,6.017,6.017,0,0,0-1.135-1.507c-.675-.705-.922-.681-1.721,0a8.316,8.316,0,0,1,2.82,3.46,5,5,0,0,0,2.348,2.358Zm-7.386-3.349a8.121,8.121,0,0,1,2.964,3.6,7.432,7.432,0,0,0,1.345,1.565c.47.5.926.419,1.412-.12a8.223,8.223,0,0,1-2.9-3.556,4.491,4.491,0,0,0-2.323-2.242Zm-.351,1.328a3.9,3.9,0,0,0,3.31,4.27C1601.971,1042.286,1601.879,1040.178,1600.117,1039.189Zm8,.678c.128-2.018-1.334-3.976-3.017-4.033C1606.316,1037.022,1606.457,1038.926,1608.116,1039.867Z" transform="translate(-687.556 -56.069)" fill="#ff7900"/>
    <g id="Сгруппировать_839" data-name="Сгруппировать 839" transform="translate(767.407 966.537)">
      <path id="Контур_1599" data-name="Контур 1599" d="M776.986,985a11.317,11.317,0,0,1,1.723-6.45l-.024-.006a9.339,9.339,0,0,0-11.063-11.769,9.436,9.436,0,0,1,.981.672,9.341,9.341,0,0,1,1.579,13.115,11.114,11.114,0,0,0-2.387,4.448,9.34,9.34,0,0,0,15.21,9.6A11.361,11.361,0,0,1,776.986,985Z" transform="translate(-767.407 -966.537)" fill="#ff9d00"/>
      <g id="Сгруппировать_838" data-name="Сгруппировать 838" transform="translate(0 0)">
        <g id="Сгруппировать_837" data-name="Сгруппировать 837" clip-path="url(#clip-path)">
          <g id="Сгруппировать_836" data-name="Сгруппировать 836" transform="translate(-11.847 -0.33)">
            <circle id="Эллипс_99" data-name="Эллипс 99" cx="9.252" cy="9.252" r="9.252" fill="#ffcb24"/>
            <circle id="Эллипс_100" data-name="Эллипс 100" cx="10.851" cy="10.851" r="10.851" transform="translate(15.634 12.693)" fill="#ff7900"/>
          </g>
        </g>
      </g>
    </g>
    <text id="вкуcно_быстро" data-name="вкуcно &amp; быстро" transform="translate(784.203 1007.735)" fill="#c2c2c2" font-size="13" font-family="SegoeUI, Segoe UI"><tspan x="0" y="0">вкуcно </tspan><tspan y="0" fill="#ff7900">&amp;</tspan><tspan y="0" xml:space="preserve"> быстро</tspan></text>
  </g>
</svg>
